<svg width="160" height="160" viewBox="0 0 160 160" fill="none" xmlns="http://www.w3.org/2000/svg">
<path d="M0 55.4667C0 36.0515 0 26.3439 3.77844 18.9283C7.10205 12.4054 12.4054 7.10205 18.9283 3.77844C26.3439 0 36.0515 0 55.4667 0H104.533C123.948 0 133.656 0 141.072 3.77844C147.595 7.10205 152.898 12.4054 156.222 18.9283C160 26.3439 160 36.0515 160 55.4667V104.533C160 123.948 160 133.656 156.222 141.072C152.898 147.595 147.595 152.898 141.072 156.222C133.656 160 123.948 160 104.533 160H55.4667C36.0515 160 26.3439 160 18.9283 156.222C12.4054 152.898 7.10205 147.595 3.77844 141.072C0 133.656 0 123.948 0 104.533V55.4667Z" fill="#FFD02F"/>
<path fill-rule="evenodd" clip-rule="evenodd" d="M109.027 21.3333H91.9469L107.109 44.838L75.0534 21.3333H57.9732L73.1353 52.13L41.0797 21.3333H24L38.9134 61.086L24 138.667H41.0797L73.1353 55.4825L57.9732 138.667H75.0534L107.109 48.1905L91.9469 138.667H109.027L141.331 39.284L109.027 21.3333Z" fill="#050038"/>
</svg>
