<svg width="216" height="24" viewBox="0 0 216 24" fill="none" xmlns="http://www.w3.org/2000/svg">
<g clip-path="url(#clip0_2_22)">
<path d="M14.857 17.082C16.7202 16.8614 18.5509 16.4217 20.311 15.772C18.8204 14.1208 17.9967 11.9745 18 9.75V9C18 7.4087 17.3678 5.88258 16.2426 4.75736C15.1174 3.63214 13.5913 3 12 3C10.4087 3 8.88257 3.63214 7.75735 4.75736C6.63213 5.88258 5.99999 7.4087 5.99999 9V9.75C6.00301 11.9746 5.17898 14.121 3.68799 15.772C5.42099 16.412 7.24799 16.857 9.14299 17.082M14.857 17.082C12.959 17.3071 11.041 17.3071 9.14299 17.082M14.857 17.082C15.0011 17.5319 15.0369 18.0094 14.9616 18.4757C14.8862 18.942 14.7018 19.384 14.4234 19.7656C14.1449 20.1472 13.7803 20.4576 13.3592 20.6716C12.9381 20.8856 12.4724 20.9972 12 20.9972C11.5276 20.9972 11.0619 20.8856 10.6408 20.6716C10.2197 20.4576 9.85506 20.1472 9.57661 19.7656C9.29816 19.384 9.11375 18.942 9.0384 18.4757C8.96305 18.0094 8.99889 17.5319 9.14299 17.082" stroke="black" stroke-width="1.5" stroke-linecap="round" stroke-linejoin="round"/>
<path d="M34.343 3.94C34.433 3.398 34.903 3 35.453 3H36.546C37.096 3 37.566 3.398 37.656 3.94L37.805 4.834C37.875 5.258 38.189 5.598 38.585 5.764C38.983 5.928 39.44 5.906 39.79 5.656L40.527 5.129C40.7438 4.97405 41.0085 4.90107 41.274 4.92305C41.5395 4.94502 41.7887 5.06053 41.977 5.249L42.75 6.023C43.14 6.412 43.19 7.025 42.87 7.473L42.343 8.21C42.093 8.56 42.071 9.016 42.236 9.414C42.401 9.811 42.741 10.124 43.166 10.194L44.059 10.344C44.602 10.434 44.999 10.904 44.999 11.453V12.547C44.999 13.097 44.602 13.567 44.059 13.657L43.166 13.806C42.741 13.876 42.401 14.189 42.236 14.586C42.071 14.984 42.093 15.44 42.343 15.79L42.87 16.528C43.19 16.975 43.139 17.588 42.75 17.978L41.976 18.751C41.7877 18.9392 41.5388 19.0546 41.2735 19.0765C41.0082 19.0985 40.7437 19.0257 40.527 18.871L39.789 18.344C39.439 18.094 38.983 18.072 38.586 18.237C38.189 18.402 37.876 18.742 37.805 19.166L37.656 20.06C37.566 20.602 37.096 21 36.546 21H35.452C34.902 21 34.433 20.602 34.342 20.06L34.194 19.166C34.123 18.742 33.81 18.402 33.413 18.236C33.015 18.072 32.559 18.094 32.209 18.344L31.471 18.871C31.024 19.191 30.411 19.14 30.021 18.751L29.248 17.977C29.0595 17.7887 28.944 17.5395 28.922 17.274C28.9001 17.0085 28.973 16.7438 29.128 16.527L29.655 15.79C29.905 15.44 29.928 14.984 29.763 14.586C29.598 14.189 29.258 13.876 28.833 13.806L27.939 13.656C27.397 13.566 26.999 13.096 26.999 12.547V11.453C26.999 10.903 27.397 10.433 27.939 10.343L28.833 10.194C29.257 10.124 29.598 9.811 29.763 9.414C29.928 9.016 29.906 8.56 29.656 8.21L29.129 7.472C28.974 7.25524 28.9011 6.99053 28.923 6.72499C28.945 6.45945 29.0605 6.21034 29.249 6.022L30.022 5.249C30.2103 5.06053 30.4594 4.94502 30.725 4.92305C30.9905 4.90107 31.2552 4.97405 31.472 5.129L32.209 5.656C32.559 5.906 33.016 5.928 33.413 5.763C33.81 5.598 34.123 5.258 34.193 4.834L34.343 3.94V3.94Z" stroke="black" stroke-width="1.5" stroke-linecap="round" stroke-linejoin="round"/>
<path d="M39 12C39 12.7956 38.6839 13.5587 38.1213 14.1213C37.5587 14.6839 36.7956 15 36 15C35.2044 15 34.4413 14.6839 33.8787 14.1213C33.3161 13.5587 33 12.7956 33 12C33 11.2044 33.3161 10.4413 33.8787 9.87868C34.4413 9.31607 35.2044 9 36 9C36.7956 9 37.5587 9.31607 38.1213 9.87868C38.6839 10.4413 39 11.2044 39 12V12Z" stroke="black" stroke-width="1.5" stroke-linecap="round" stroke-linejoin="round"/>
<path d="M63 19.128C63.853 19.3757 64.7368 19.5009 65.625 19.5C67.0534 19.5021 68.4632 19.1764 69.746 18.548C69.7839 17.6517 69.5286 16.7675 69.0188 16.0293C68.5089 15.2912 67.7724 14.7394 66.9207 14.4575C66.069 14.1757 65.1487 14.1791 64.2992 14.4674C63.4496 14.7557 62.7172 15.313 62.213 16.055M63 19.128V19.125C63 18.012 62.715 16.965 62.214 16.055M63 19.128V19.234C61.0755 20.3931 58.8706 21.0038 56.624 21C54.293 21 52.112 20.355 50.25 19.234L50.249 19.125C50.2482 17.7095 50.7186 16.3339 51.586 15.2153C52.4533 14.0966 53.6684 13.2984 55.0395 12.9466C56.4106 12.5948 57.8598 12.7093 59.1587 13.2721C60.4575 13.8349 61.5321 14.814 62.213 16.055M60 6.375C60 7.27011 59.6444 8.12855 59.0115 8.76149C58.3785 9.39442 57.5201 9.75 56.625 9.75C55.7299 9.75 54.8714 9.39442 54.2385 8.76149C53.6056 8.12855 53.25 7.27011 53.25 6.375C53.25 5.47989 53.6056 4.62145 54.2385 3.98851C54.8714 3.35558 55.7299 3 56.625 3C57.5201 3 58.3785 3.35558 59.0115 3.98851C59.6444 4.62145 60 5.47989 60 6.375V6.375ZM68.25 8.625C68.25 9.32119 67.9734 9.98887 67.4811 10.4812C66.9889 10.9734 66.3212 11.25 65.625 11.25C64.9288 11.25 64.2611 10.9734 63.7688 10.4812C63.2766 9.98887 63 9.32119 63 8.625C63 7.92881 63.2766 7.26113 63.7688 6.76884C64.2611 6.27656 64.9288 6 65.625 6C66.3212 6 66.9889 6.27656 67.4811 6.76884C67.9734 7.26113 68.25 7.92881 68.25 8.625V8.625Z" stroke="black" stroke-width="1.5" stroke-linecap="round" stroke-linejoin="round"/>
<path d="M74.25 3H75.636C76.146 3 76.591 3.343 76.723 3.835L77.106 5.272M79.5 14.25C78.7044 14.25 77.9413 14.5661 77.3787 15.1287C76.8161 15.6913 76.5 16.4544 76.5 17.25H92.25M79.5 14.25H90.718C91.839 11.95 92.818 9.566 93.642 7.112C88.2419 5.73515 82.6766 5.11589 77.106 5.272M79.5 14.25L77.106 5.272M78 20.25C78 20.4489 77.921 20.6397 77.7803 20.7803C77.6397 20.921 77.4489 21 77.25 21C77.0511 21 76.8603 20.921 76.7197 20.7803C76.579 20.6397 76.5 20.4489 76.5 20.25C76.5 20.0511 76.579 19.8603 76.7197 19.7197C76.8603 19.579 77.0511 19.5 77.25 19.5C77.4489 19.5 77.6397 19.579 77.7803 19.7197C77.921 19.8603 78 20.0511 78 20.25V20.25ZM90.75 20.25C90.75 20.4489 90.671 20.6397 90.5303 20.7803C90.3897 20.921 90.1989 21 90 21C89.8011 21 89.6103 20.921 89.4697 20.7803C89.329 20.6397 89.25 20.4489 89.25 20.25C89.25 20.0511 89.329 19.8603 89.4697 19.7197C89.6103 19.579 89.8011 19.5 90 19.5C90.1989 19.5 90.3897 19.579 90.5303 19.7197C90.671 19.8603 90.75 20.0511 90.75 20.25V20.25Z" stroke="black" stroke-width="1.5" stroke-linecap="round" stroke-linejoin="round"/>
<path d="M99 7.5L103.5 3M103.5 3L108 7.5M103.5 3V16.5M117 16.5L112.5 21M112.5 21L108 16.5M112.5 21V7.5" stroke="black" stroke-width="1.5" stroke-linecap="round" stroke-linejoin="round"/>
<path d="M129 12H132.75M129 15H132.75M129 18H132.75M135.75 18.75H138C138.597 18.75 139.169 18.5129 139.591 18.091C140.013 17.669 140.25 17.0967 140.25 16.5V6.108C140.25 4.973 139.405 4.01 138.274 3.916C137.9 3.88498 137.526 3.85831 137.151 3.836M131.35 3.836C131.285 4.046 131.25 4.269 131.25 4.5C131.25 4.914 131.586 5.25 132 5.25H136.5C136.699 5.25 136.89 5.17098 137.03 5.03033C137.171 4.88968 137.25 4.69891 137.25 4.5C137.25 4.27491 137.216 4.05109 137.15 3.836M131.35 3.836C131.492 3.3767 131.777 2.97493 132.164 2.68954C132.551 2.40414 133.019 2.25011 133.5 2.25H135C135.481 2.24996 135.949 2.40393 136.336 2.68934C136.723 2.97476 137.008 3.37662 137.15 3.836M131.35 3.836C130.974 3.859 130.6 3.886 130.226 3.916C129.095 4.01 128.25 4.973 128.25 6.108V8.25M128.25 8.25H124.875C124.254 8.25 123.75 8.754 123.75 9.375V20.625C123.75 21.246 124.254 21.75 124.875 21.75H134.625C135.246 21.75 135.75 21.246 135.75 20.625V9.375C135.75 8.754 135.246 8.25 134.625 8.25H128.25ZM126.75 12H126.758V12.008H126.75V12ZM126.75 15H126.758V15.008H126.75V15ZM126.75 18H126.758V18.008H126.75V18Z" stroke="black" stroke-width="1.5" stroke-linecap="round" stroke-linejoin="round"/>
<path d="M146.25 18L153 11.25L157.306 15.557C158.551 13.1028 160.604 11.1534 163.12 10.038L165.86 8.818M165.86 8.818L159.92 6.538M165.86 8.818L163.58 14.759" stroke="white" stroke-width="1.5" stroke-linecap="round" stroke-linejoin="round"/>
<path d="M187.5 14.25V11.625C187.5 10.7299 187.144 9.87145 186.511 9.23851C185.879 8.60558 185.02 8.25 184.125 8.25H182.625C182.327 8.25 182.04 8.13147 181.83 7.9205C181.619 7.70952 181.5 7.42337 181.5 7.125V5.625C181.5 4.72989 181.144 3.87145 180.511 3.23851C179.879 2.60558 179.02 2.25 178.125 2.25H176.25M176.25 15H183.75M176.25 18H180M178.5 2.25H173.625C173.004 2.25 172.5 2.754 172.5 3.375V20.625C172.5 21.246 173.004 21.75 173.625 21.75H186.375C186.996 21.75 187.5 21.246 187.5 20.625V11.25C187.5 8.86305 186.552 6.57387 184.864 4.88604C183.176 3.19821 180.887 2.25 178.5 2.25V2.25Z" stroke="black" stroke-width="1.5" stroke-linecap="round" stroke-linejoin="round"/>
<path d="M210.364 5.63601C209.105 4.37735 207.502 3.52019 205.756 3.17294C204.01 2.82568 202.2 3.00391 200.556 3.68511C198.911 4.3663 197.506 5.51985 196.517 6.99989C195.528 8.47993 195 10.22 195 12C195 13.78 195.528 15.5201 196.517 17.0001C197.506 18.4802 198.911 19.6337 200.556 20.3149C202.2 20.9961 204.01 21.1743 205.756 20.8271C207.502 20.4798 209.105 19.6227 210.364 18.364M213 12L204 12" stroke="black" stroke-width="1.5" stroke-linecap="round" stroke-linejoin="round"/>
</g>
<defs>
<clipPath id="clip0_2_22">
<rect width="216" height="24" fill="white"/>
</clipPath>
</defs>
</svg>
