<?xml version="1.0" encoding="UTF-8"?>
<svg width="752pt" height="752pt" version="1.1" viewBox="0 0 752 752" xmlns="http://www.w3.org/2000/svg">
 <path d="m376 203.14c95.191 0 172.86 77.668 172.86 172.86 0 38.359-12.785 74.824-35.52 105.14l17.996 49.254c2.3672 6.6289 0.94531 14.207-3.7891 19.418-3.7891 3.7891-8.5234 6.1562-13.734 6.1562-1.8945 0-3.3164 0-5.2109-0.47266l-67.723-18.941c-20.363 8.5234-42.148 12.312-64.406 12.312-95.191 0-172.86-77.668-172.86-172.86 0-95.195 77.195-172.86 172.39-172.86zm0 307.83c19.418 0 37.887-3.7891 55.41-11.84 2.3672-0.94531 5.2109-1.8945 7.5781-1.8945 1.8945 0 3.3164 0 5.2109 0.47266l38.828 10.895-8.9961-25.102c-2.3672-6.6289-0.94531-13.734 3.7891-18.941 21.309-24.152 33.148-55.883 33.148-88.562 0-74.352-60.617-134.97-134.97-134.97-74.355 0-134.97 60.617-134.97 134.97 0 74.355 60.617 134.97 134.97 134.97z" fill="#9b9b9b"/>
</svg>
